# AST/ASF file generated using VICON BodyLanguage
# -----------------------------------------------
:version 1.10
:name VICON
:units
  mass 1.0
  length 0.45
  angle deg
:documentation
   .ast/.asf automatically generated from VICON data using
   VICON BodyBuilder and BodyLanguage model FoxedUp or BRILLIANT.MOD
:root
   order TX TY TZ RX RY RZ
   axis XYZ
   position 0 0 0  
   orientation 0 0 0 
:bonedata
  begin
     id 1 
     name lhipjoint
     direction 0.623415 -0.642378 0.445763 
     length 2.49859 
     axis 0 0 0  XYZ
  end
  begin
     id 2 
     name lfemur
     direction 0.34202 -0.939693 0  
     length 6.69689  
     axis 0 0 20  XYZ
    dof rx ry rz
    limits (-160.0 20.0)
           (-70.0 70.0)
           (-60.0 70.0)
  end
  begin
     id 3 
     name ltibia
     direction 0.34202 -0.939693 0   
     length 7.37574   
     axis 0 0 20   XYZ
    dof rx
    limits (-10.0 170.0)
  end
  begin
     id 4 
     name lfoot
     direction 0.084323 -0.231675 0.969132   
     length 2.09111   
     axis -90 7.62852e-016 20   XYZ
    dof rx rz
    limits (-45.0 90.0)
           (-70.0 20.0)
  end
  begin
     id 5 
     name ltoes
     direction 1.5357e-011 -4.21957e-011 1   
     length 1.04989   
     axis -90 7.62852e-016 20   XYZ
    dof rx
    limits (-90.0 20.0)
  end
  begin
     id 6 
     name rhipjoint
     direction -0.605402 -0.653903 0.45376   
     length 2.45455  
     axis 0 0 0  XYZ 
  end
  begin
     id 7 
     name rfemur
     direction -0.34202 -0.939693 0   
     length 6.64523   
     axis 0 0 -20   XYZ
    dof rx ry rz
    limits (-160.0 20.0)
           (-70.0 70.0)
           (-70.0 60.0)
  end
  begin
     id 8 
     name rtibia
     direction -0.34202 -0.939693 0   
     length 7.3339   
     axis 0 0 -20   XYZ
    dof rx
    limits (-10.0 170.0)
 end
 begin
     id 9 
     name rfoot
     direction -0.120854 -0.332043 0.93549   
     length 2.23135  
     axis -90 -7.62852e-016 -20   XYZ
    dof rx rz
    limits (-45.0 90.0)
           (-20.0 70.0)
  end
  begin
     id 10 
     name rtoes
     direction -1.53563e-011 -4.21914e-011 1   
     length 1.10614   
     axis -90 -7.62852e-016 -20   XYZ
    dof rx
    limits (-90.0 20.0)
  end
  begin
     id 11 
     name lowerback
     direction 0.0319682 0.998615 -0.0417941   
     length 2.02718   
     axis 0 0 0   XYZ
    dof rx ry rz
    limits (-20.0 45.0)
           (-30.0 30.0)
           (-30.0 30.0)
  end
  begin
     id 12 
     name upperback
     direction 7.63181e-005 0.995808 0.0914691   
     length 1.97539   
     axis 0 0 0   XYZ
    dof rx ry rz
    limits (-20.0 45.0)
           (-30.0 30.0)
           (-30.0 30.0)
  end
  begin
     id 13 
     name thorax
     direction -0.016423 0.993627 0.111514   
     length 2.00349   
     axis 0 0 0   XYZ
    dof rx ry rz
    limits (-20.0 45.0)
           (-30.0 30.0)
           (-30.0 30.0)
  end
  begin
     id 14 
     name lowerneck
     direction -0.174763 0.981668 -0.0760716   
     length 1.71436   
     axis 0 0 0   XYZ
    dof rx ry rz
    limits (-20.0 45.0)
           (-30.0 30.0)
           (-30.0 30.0)
  end
  begin
     id 15 
     name upperneck
     direction 0.345458 0.934587 -0.0848868   
     length 1.72805   
     axis 0 0 0   XYZ
    dof rx ry rz
    limits (-20.0 45.0)
           (-30.0 30.0)
           (-30.0 30.0)
  end
  begin
     id 16
     name head
     direction 0.13001 0.989848 -0.0574291  
     length 1.767  
     axis 0 0 0   XYZ
    dof rx ry rz
    limits (-20.0 45.0)
           (-30.0 30.0)
           (-30.0 30.0)
  end
  begin
     id 17 
     name lclavicle
     direction 0.952951 0.290122 0.0878234  
     length 3.54654  
     axis 0 0 0   XYZ
    dof ry rz
    limits (-20.0 10.0)
           (0.0 20.0)
  end
  begin
     id 18 
     name lhumerus
     direction 1 -4.48957e-011 -4.56525e-028   
     length 5.19807   
     axis 180 -30 -90   XYZ
    dof rx ry rz
    limits (-60.0 90.0)
           (-90.0 90.0)
           (-90.0 90.0)
  end
  begin
     id 19
     name lradius
     direction 1 -4.48979e-011 -2.0317e-027   
     length 3.0937   
     axis 180 -30 -90   XYZ
    dof rx
    limits (-10.0 170.0)
  end
  begin
     id 20
     name lwrist
     direction 1 -4.48953e-011 -3.05809e-027   
     length 1.54685   
     axis 8.48514e-016 90 90   XYZ
    dof ry
    limits (-180.0 0.0)
 end
  begin
     id 21 
     name lhand
     direction 1 -4.48952e-011 -6.11639e-027   
     length 0.672632   
     axis 3.9013e-015 90 90   XYZ
    dof rx rz
    limits (-90.0 90.0)
           (-45.0 45.0)
  end
  begin
     id 22 
     name lfingers
     direction 1 -4.48925e-011 -1.22426e-026   
     length 0.542293   
     axis 7.80276e-015 90 90   XYZ
    dof rx
    limits (0.0 90.0)
  end
  begin
     id 23
     name lthumb
     direction 0.707107 -6.3486e-011 0.707107   
     length 0.778628   
     axis -90 45 5.37419e-014   XYZ
    dof rx rz
    limits (-45.0 45.0)
           (-45.0 45.0)
  end
  begin
     id 24 
     name rclavicle
     direction -0.960732 0.273675 -0.0457849   
     length 3.52079  
     axis 0 0 0   XYZ 
    dof ry rz
    limits (-10.0 20.0)
           (-20.0 0.0)
  end
  begin
     id 25 
     name rhumerus
     direction -1 -4.48976e-011 -1.63613e-027  
     length 5.45222   
     axis 180 30 90   XYZ
    dof rx ry rz
    limits (-90.0 60.0)
           (-90.0 90.0)
           (-90.0 90.0)
  end
  begin
     id 26 
     name rradius
     direction -1 -4.48957e-011 -7.00033e-028   
     length 3.01284   
     axis 180 30 90   XYZ
    dof rx
    limits (-10.0 170.0)
  end
  begin
     id 27 
     name rwrist
     direction -1 -4.48983e-011 -3.05543e-027   
     length 1.50642   
     axis 8.48514e-016 -90 -90   XYZ
    dof ry
    limits (-180.0 0.0)
  end
  begin
     id 28
     name rhand
     direction -1 -4.48984e-011 -6.11072e-027   
     length 0.622296   
     axis 3.9013e-015 -90 -90   XYZ
    dof rx rz
    limits (-90.0 90.0)
           (-45.0 45.0)
  end
  begin
     id 29
     name rfingers
     direction -1 -4.48865e-011 -1.22637e-026   
     length 0.501711   
     axis 7.80276e-015 -90 -90   XYZ
    dof rx
    limits (0.0 90.0)
  end
  begin
     id 30
     name rthumb
     direction -0.707107 -6.34932e-011 0.707107   
     length 0.72036   
     axis -90 -45 -5.37419e-014   XYZ
    dof rx rz
    limits (-45.0 45.0)
           (-45.0 45.0)
  end
:hierarchy
  begin
    root lhipjoint rhipjoint lowerback
    lhipjoint lfemur
    lfemur ltibia
    ltibia lfoot
    lfoot ltoes
    rhipjoint rfemur
    rfemur rtibia
    rtibia rfoot
    rfoot rtoes
    lowerback upperback
    upperback thorax
    thorax lowerneck lclavicle rclavicle
    lowerneck upperneck
    upperneck head
    lclavicle lhumerus
    lhumerus lradius
    lradius lwrist
    lwrist lhand lthumb
    lhand lfingers
    rclavicle rhumerus
    rhumerus rradius
    rradius rwrist
    rwrist rhand rthumb
    rhand rfingers
  end

#!OML:ASF H:\Not Pregnant\Project 1\Capture day 1\Session 1\non-pregnant.ASF
:FULLY-SPECIFIED
:DEGREES
69
root -5.65586 16.3584 35.106 156.893 -82.3791 -143.569
lowerback -13.9051 2.58323 3.37451
upperback -5.77152 2.68696 -0.0639838
thorax 1.86758 1.1694 -1.55984
lowerneck 20.4324 -8.40162 -30.1744
upperneck -10.7593 -18.6065 45.0992
head 1.92865 -12.6709 24.6111
rclavicle 1.4064e-014 2.78299e-015
rhumerus -27.4666 25.3309 -80.7244
rradius 88.686
rwrist 53.8231
rhand -20.1603 20.2555
rfingers 7.12502
rthumb 6.18503 -9.63426
lclavicle 1.4064e-014 2.78299e-015
lhumerus -42.1328 -8.47668 90.5392
lradius 33.8955
lwrist 48.5559
lhand 11.0223 -7.58109
lfingers 7.12502
lthumb 36.0953 18.712
rfemur 0 0 0
rtibia 0
rfoot 0 0
rtoes 0
lfemur -16.578 6.40566 -17.2069
ltibia 15.212
lfoot -13.0415 -5.13221
ltoes -16.2556
70
root -5.6526 16.3585 35.108 157.16 -82.335 -143.837
lowerback -13.8658 2.58268 3.43015
upperback -5.78105 2.68075 -0.0687826
thorax 1.83873 1.16491 -1.59862
lowerneck 20.4925 -8.4404 -30.1451
upperneck -10.8254 -18.6337 45.024
head 1.89288 -12.6771 24.5291
rclavicle 9.64106e-015 1.59028e-015
rhumerus -25.8089 23.7808 -79.1186
rradius 90.2843
rwrist 54.1798
rhand -20.4703 20.4418
rfingers 7.12502
rthumb 5.88573 -9.45641
lclavicle 9.64106e-015 1.59028e-015
lhumerus -42.0944 -8.54439 90.5162
lradius 33.7273
lwrist 48.4765
lhand 11.145 -7.55455
lfingers 7.12502
lthumb 36.2115 18.7097
rfemur 0 0 0
rtibia 0
rfoot 0 0
rtoes 0
lfemur -16.5732 6.43995 -17.2232
ltibia 15.1934
lfoot -13.0185 -5.11741
ltoes -16.2547
71
root -5.6491 16.3587 35.1105 157.451 -82.2943 -144.131
lowerback -13.8174 2.58806 3.48707
upperback -5.79402 2.68288 -0.0791635
thorax 1.8022 1.16433 -1.64301
lowerneck 20.561 -8.48442 -30.1193
upperneck -10.8923 -18.6754 44.9582
head 1.86455 -12.6932 24.4535
rclavicle -1.05107e-014 -1.07344e-014
rhumerus -24.1358 21.944 -77.5848
rradius 91.736
rwrist 54.4741
rhand -21.0951 20.6895
rfingers 7.12502
rthumb 5.28254 -9.22463
lclavicle -1.05107e-014 -1.07344e-014
lhumerus -42.056 -8.64769 90.5192
lradius 33.5423
lwrist 48.2263
lhand 11.1926 -7.61745
lfingers 7.12502
lthumb 36.2565 18.6356
rfemur 0 0 0
rtibia 0
rfoot 0 0
rtoes 0
lfemur -16.5638 6.46759 -17.2469
ltibia 15.1677
lfoot -12.9908 -5.10073
ltoes -16.2548
72
root -5.64548 16.3589 35.1141 157.88 -82.2678 -144.565
lowerback -13.7626 2.59696 3.5334
upperback -5.80966 2.69178 -0.101115
thorax 1.75992 1.16703 -1.69274
lowerneck 20.6323 -8.53479 -30.0946
upperneck -10.9582 -18.7308 44.8991
head 1.84396 -12.7177 24.3804
rclavicle -6.60959e-015 9.14409e-015
rhumerus -22.4638 19.8444 -76.1522
rradius 93.0503
rwrist 54.7216
rhand -22.0105 20.9158
rfingers 7.12502
rthumb 4.39864 -9.01856
lclavicle -6.60959e-015 9.14409e-015
lhumerus -42.0072 -8.74772 90.5203
lradius 33.35
lwrist 47.9511
lhand 11.2538 -7.70036
lfingers 7.12502
lthumb 36.3145 18.5383
rfemur 0 0 0
rtibia 0
rfoot 0 0
rtoes 0
lfemur -16.549 6.48553 -17.3012
ltibia 15.1313
lfoot -12.9581 -5.08189
ltoes -16.2545
73
root -5.64182 16.3593 35.1177 158.299 -82.2441 -144.993
lowerback -13.6999 2.60367 3.57336
upperback -5.82702 2.69885 -0.117675
thorax 1.71097 1.16881 -1.73387
lowerneck 20.6979 -8.58326 -30.0832
upperneck -11.0137 -18.7897 44.8422
head 1.83119 -12.7437 24.3119
rclavicle 4.39314e-014 3.97569e-016
rhumerus -20.7983 17.5143 -74.8469
rradius 94.2169
rwrist 55.0117
rhand -23.217 21.0135
rfingers 7.12502
rthumb 3.23354 -8.94177
lclavicle 4.39314e-014 3.97569e-016
lhumerus -41.9578 -8.84444 90.5382
lradius 33.1455
lwrist 47.5355
lhand 11.2625 -7.85287
lfingers 7.12502
lthumb 36.3228 18.3837
rfemur 0 0 0
rtibia 0
rfoot 0 0
rtoes 0
lfemur -16.5242 6.49471 -17.3558
ltibia 15.0844
lfoot -12.9196 -5.05802
ltoes -16.2656
